<?xml version="1.0" standalone="no"?>
<!DOCTYPE svg PUBLIC "-//W3C//DTD SVG 20010904//EN"
 "http://www.w3.org/TR/2001/REC-SVG-20010904/DTD/svg10.dtd">
<svg version="1.0" xmlns="http://www.w3.org/2000/svg"
 width="512.000000pt" height="512.000000pt" viewBox="0 0 512.000000 512.000000"
 preserveAspectRatio="xMidYMid meet">
<metadata>
Created by potrace 1.14, written by Peter Selinger 2001-2017
</metadata>
<g transform="translate(0.000000,512.000000) scale(0.100000,-0.100000)"
fill="#000000" stroke="none">
<path d="M2863 4557 l-233 -232 0 -45 0 -44 290 -291 291 -292 -87 -17 c-138
-27 -298 -83 -436 -153 l-129 -65 -57 31 c-416 231 -888 282 -1324 145 -89
-28 -108 -48 -108 -112 0 -32 6 -49 25 -67 32 -33 62 -32 207 5 341 86 704 51
1002 -96 l74 -37 -95 -93 -96 -93 -75 30 c-130 52 -224 70 -388 76 -241 9
-405 -26 -606 -129 -675 -345 -872 -1217 -411 -1820 211 -276 550 -455 897
-474 551 -31 1053 314 1224 842 43 131 57 222 56 379 0 215 -39 369 -141 564
l-54 104 38 39 c45 46 136 118 149 118 15 0 99 -144 143 -245 149 -338 161
-743 32 -1093 -71 -196 -189 -379 -342 -531 -162 -163 -357 -284 -569 -355
-184 -61 -251 -71 -475 -71 -180 1 -211 3 -311 27 -292 69 -532 205 -738 418
-206 213 -340 472 -392 760 -24 131 -24 392 -1 515 42 214 127 417 251 595 36
52 66 105 66 117 0 59 -48 103 -111 103 -39 0 -76 -37 -152 -153 -332 -501
-367 -1146 -91 -1681 231 -450 650 -767 1158 -878 87 -19 131 -22 326 -22 196
0 238 3 329 22 162 36 280 77 426 151 l135 69 123 -63 c138 -72 284 -124 437
-157 92 -19 134 -22 330 -22 195 0 239 3 326 22 518 113 935 433 1168 898 315
629 198 1389 -293 1896 -247 256 -550 422 -881 484 -52 10 -97 19 -100 21 -2
2 123 131 277 286 155 155 287 295 293 310 5 16 7 39 4 51 -3 13 -110 127
-238 254 l-232 232 -339 0 -340 0 -232 -233z m937 -72 l105 -105 -463 0 c-254
0 -462 3 -462 7 0 4 44 52 97 105 l98 98 260 0 260 0 105 -105z m-128 -537
l-232 -233 -232 233 -233 232 465 0 465 0 -233 -232z m-74 -488 c572 -62 1057
-447 1240 -985 57 -167 75 -281 76 -470 0 -196 -16 -303 -69 -463 -78 -234
-180 -398 -359 -578 -218 -218 -449 -344 -756 -410 -120 -26 -438 -27 -560 -1
-114 24 -273 78 -358 121 l-70 35 94 93 95 92 32 -13 c191 -76 294 -96 497
-95 151 1 175 4 283 32 547 143 918 619 919 1178 0 320 -112 603 -331 836
-180 191 -446 331 -700 368 -129 19 -363 8 -481 -23 -204 -53 -385 -154 -537
-299 -113 -108 -192 -216 -259 -352 -174 -359 -160 -796 38 -1130 l40 -68 -53
-54 c-29 -29 -72 -67 -95 -84 l-43 -30 -30 43 c-83 121 -168 332 -208 517 -25
118 -25 427 0 553 39 194 116 379 229 548 80 121 272 314 388 390 304 200 639
285 978 249z m-1760 -460 c66 -11 222 -57 222 -66 0 -3 -22 -42 -50 -88 -94
-157 -163 -338 -203 -531 -19 -94 -22 -141 -22 -325 1 -240 14 -330 80 -526
32 -96 113 -268 170 -362 l26 -42 -28 -11 c-375 -148 -821 -44 -1100 255 -138
147 -217 302 -259 506 -25 125 -16 343 21 465 108 363 402 639 765 716 97 20
281 24 378 9z m1817 -9 c319 -66 599 -294 725 -590 64 -150 75 -209 74 -406 0
-167 -2 -186 -27 -270 -52 -169 -126 -300 -238 -419 -221 -236 -543 -356 -856
-316 -91 11 -248 52 -266 70 -5 4 8 34 29 66 91 142 173 351 216 547 19 88 22
132 22 327 0 195 -3 239 -22 327 -42 193 -117 383 -210 536 -23 37 -42 69 -42
72 0 7 159 55 214 64 95 16 285 12 381 -8z m-1055 -583 c58 -131 82 -245 83
-398 1 -132 -8 -204 -40 -305 -24 -76 -75 -195 -83 -195 -5 0 -23 35 -41 78
-92 219 -110 437 -54 657 23 90 81 235 95 235 4 0 22 -33 40 -72z"/>
<path d="M702 3355 c-36 -30 -45 -69 -27 -112 42 -100 185 -71 185 38 0 85
-93 129 -158 74z"/>
</g>
</svg>
